# Blender 3.4.0
# www.blender.org
mtllib untitled.mtl
o Cylinder
v 0.000000 0.010036 -0.671657
v 0.000000 10.504421 -0.671657
v 0.131034 0.010036 -0.658752
v 0.131034 10.504421 -0.658752
v 0.257032 0.010036 -0.620531
v 0.257032 10.504421 -0.620531
v 0.373153 0.010036 -0.558463
v 0.373153 10.504421 -0.558463
v 0.474934 0.010036 -0.474934
v 0.474934 10.504421 -0.474934
v 0.558463 0.010036 -0.373153
v 0.558463 10.504421 -0.373153
v 0.620531 0.010036 -0.257032
v 0.620531 10.504421 -0.257032
v 0.658752 0.010036 -0.131034
v 0.658752 10.504421 -0.131034
v 0.671657 0.010036 -0.000000
v 0.671657 10.504421 -0.000000
v 0.658752 0.010036 0.131034
v 0.658752 10.504421 0.131034
v 0.620531 0.010036 0.257032
v 0.620531 10.504421 0.257032
v 0.558463 0.010036 0.373153
v 0.558463 10.504421 0.373153
v 0.474934 0.010036 0.474934
v 0.474934 10.504421 0.474934
v 0.373153 0.010036 0.558463
v 0.373153 10.504421 0.558463
v 0.257032 0.010036 0.620531
v 0.257032 10.504421 0.620531
v 0.131034 0.010036 0.658752
v 0.131034 10.504421 0.658752
v 0.000000 0.010036 0.671657
v 0.000000 10.504421 0.671657
v -0.131034 0.010036 0.658752
v -0.131034 10.504421 0.658752
v -0.257032 0.010036 0.620531
v -0.257032 10.504421 0.620531
v -0.373153 0.010036 0.558463
v -0.373153 10.504421 0.558463
v -0.474934 0.010036 0.474934
v -0.474934 10.504421 0.474934
v -0.558463 0.010036 0.373153
v -0.558463 10.504421 0.373153
v -0.620531 0.010036 0.257032
v -0.620531 10.504421 0.257032
v -0.658752 0.010036 0.131034
v -0.658752 10.504421 0.131034
v -0.671657 0.010036 -0.000000
v -0.671657 10.504421 -0.000000
v -0.658752 0.010036 -0.131034
v -0.658752 10.504421 -0.131034
v -0.620531 0.010036 -0.257032
v -0.620531 10.504421 -0.257032
v -0.558463 0.010036 -0.373153
v -0.558463 10.504421 -0.373153
v -0.474934 0.010036 -0.474934
v -0.474934 10.504421 -0.474934
v -0.373153 0.010036 -0.558463
v -0.373153 10.504421 -0.558463
v -0.257032 0.010036 -0.620531
v -0.257032 10.504421 -0.620531
v -0.131034 0.010036 -0.658752
v -0.131034 10.504421 -0.658752
v 0.000000 10.825326 -0.671657
v 0.131034 10.825326 -0.658752
v 0.257032 10.825326 -0.620531
v 0.373153 10.825326 -0.558463
v 0.474934 10.825326 -0.474934
v 2.713830 10.825326 -0.373153
v 2.775898 10.825326 -0.257032
v 2.814119 10.825326 -0.131034
v 2.827025 10.825326 -0.000000
v 2.814119 10.825326 0.131034
v 2.775898 10.825326 0.257032
v 2.713830 10.825326 0.373153
v 0.474934 10.825326 0.474934
v 0.373153 10.825326 0.558463
v 0.257032 10.825326 0.620531
v 0.131034 10.825326 0.658752
v 0.000000 10.825326 0.671657
v -0.131034 10.825326 0.658752
v -0.257032 10.825326 0.620531
v -0.373153 10.825326 0.558463
v -0.474933 10.825326 0.474934
v -0.558463 10.825326 0.373153
v -0.620530 10.825326 0.257032
v -0.658752 10.825326 0.131034
v -0.671657 10.825326 -0.000000
v -0.658752 10.825326 -0.131034
v -0.620530 10.825326 -0.257032
v -0.558463 10.825326 -0.373153
v -0.474933 10.825326 -0.474934
v -0.373153 10.825326 -0.558463
v -0.257032 10.825326 -0.620531
v -0.131034 10.825326 -0.658752
v 0.000000 11.121191 -0.671657
v 0.131034 11.121191 -0.658752
v 0.257032 11.121191 -0.620531
v 0.373153 11.121191 -0.558463
v 0.474934 11.121191 -0.474934
v 2.713830 11.121191 -0.373153
v 2.775898 11.121191 -0.257032
v 2.814119 11.121191 -0.131034
v 2.827025 11.121191 -0.000000
v 2.814119 11.121191 0.131034
v 2.775898 11.121191 0.257032
v 2.713830 11.121191 0.373153
v 0.474934 11.121191 0.474934
v 0.373153 11.121191 0.558463
v 0.257032 11.121191 0.620531
v 0.131034 11.121191 0.658752
v 0.000000 11.121191 0.671657
v -0.131034 11.121191 0.658752
v -0.257032 11.121191 0.620531
v -0.373153 11.121191 0.558463
v -0.474933 11.121191 0.474934
v -0.558463 11.121191 0.373153
v -0.620530 11.121191 0.257032
v -0.658752 11.121191 0.131034
v -0.671657 11.121191 -0.000000
v -0.658752 11.121191 -0.131034
v -0.620530 11.121191 -0.257032
v -0.558463 11.121191 -0.373153
v -0.474933 11.121191 -0.474934
v -0.373153 11.121191 -0.558463
v -0.257032 11.121191 -0.620531
v -0.131034 11.121191 -0.658752
vn 0.0980 -0.0000 -0.9952
vn 0.2903 -0.0000 -0.9569
vn 0.4714 -0.0000 -0.8819
vn 0.6344 -0.0000 -0.7730
vn 0.7730 -0.0000 -0.6344
vn 0.8819 -0.0000 -0.4714
vn 0.9569 -0.0000 -0.2903
vn 0.9952 -0.0000 -0.0980
vn 0.9952 -0.0000 0.0980
vn 0.9569 -0.0000 0.2903
vn 0.8819 -0.0000 0.4714
vn 0.7730 -0.0000 0.6344
vn 0.6344 -0.0000 0.7730
vn 0.4714 -0.0000 0.8819
vn 0.2903 -0.0000 0.9569
vn 0.0980 -0.0000 0.9952
vn -0.0980 -0.0000 0.9952
vn -0.2903 -0.0000 0.9569
vn -0.4714 -0.0000 0.8819
vn -0.6344 -0.0000 0.7730
vn -0.7730 -0.0000 0.6344
vn -0.8819 -0.0000 0.4714
vn -0.9569 -0.0000 0.2903
vn -0.9952 -0.0000 0.0980
vn -0.9952 -0.0000 -0.0980
vn -0.9569 -0.0000 -0.2903
vn -0.8819 -0.0000 -0.4714
vn -0.7730 -0.0000 -0.6344
vn -0.6344 -0.0000 -0.7730
vn -0.4714 -0.0000 -0.8819
vn 0.1468 -0.9860 0.0785
vn -0.2903 -0.0000 -0.9569
vn -0.0980 -0.0000 -0.9952
vn -0.0000 -1.0000 -0.0000
vn 0.1471 -0.9881 -0.0446
vn 0.0838 -0.2814 0.9559
vn 0.1472 -0.9890 -0.0145
vn 0.1472 -0.9890 0.0145
vn 0.0838 -0.2814 -0.9559
vn 0.1471 -0.9881 0.0446
vn 0.1468 -0.9860 -0.0785
vn -0.0000 1.0000 -0.0000
vn 0.0454 -0.0000 -0.9990
vn 0.0454 -0.0000 0.9990
vt 1.000000 0.500000
vt 0.000000 0.500000
vt 0.750000 0.490000
vt 1.000000 0.831029
vt 0.000000 0.831029
vt 1.000000 0.931791
vt 0.000000 0.831694
vt 0.968750 0.500000
vt 0.796822 0.485388
vt 0.968750 0.831029
vt 0.968750 0.931791
vt 0.937500 0.500000
vt 0.841844 0.471731
vt 0.937500 0.831029
vt 0.937500 0.933022
vt 0.937500 0.931791
vt 0.906250 0.500000
vt 0.883337 0.449553
vt 0.906250 0.831029
vt 0.906250 0.933637
vt 0.906250 0.931791
vt 0.875000 0.500000
vt 0.919706 0.419706
vt 0.875000 0.831029
vt 0.875000 0.931791
vt 0.875615 0.932551
vt 0.843750 0.500000
vt 0.949553 0.383337
vt 0.843750 0.831029
vt 0.844365 0.932551
vt 0.843750 0.831205
vt 0.812500 0.500000
vt 0.971731 0.341844
vt 0.812500 0.831029
vt 0.812500 0.830229
vt 0.781250 0.500000
vt 0.985388 0.296822
vt 0.781250 0.831029
vt 0.781250 0.831205
vt 0.750000 0.500000
vt 0.990000 0.250000
vt 0.750000 0.831029
vt 0.750000 0.830717
vt 0.718750 0.500000
vt 0.985388 0.203178
vt 0.718750 0.831029
vt 0.718750 0.831205
vt 0.687500 0.500000
vt 0.971731 0.158156
vt 0.687500 0.831029
vt 0.687500 0.831694
vt 0.656250 0.500000
vt 0.949553 0.116663
vt 0.656250 0.831029
vt 0.656250 0.831694
vt 0.656250 0.829813
vt 0.625000 0.500000
vt 0.919706 0.080294
vt 0.625000 0.831029
vt 0.625000 0.831694
vt 0.593750 0.500000
vt 0.883337 0.050447
vt 0.593750 0.831029
vt 0.593750 0.830717
vt 0.562500 0.500000
vt 0.841844 0.028269
vt 0.562500 0.831029
vt 0.562500 0.830717
vt 0.531250 0.500000
vt 0.796822 0.014612
vt 0.531250 0.831029
vt 0.531250 0.831205
vt 0.500000 0.500000
vt 0.750000 0.010000
vt 0.500000 0.831029
vt 0.500000 0.831694
vt 0.468750 0.500000
vt 0.703178 0.014612
vt 0.468750 0.831029
vt 0.468750 0.831205
vt 0.437500 0.500000
vt 0.658156 0.028269
vt 0.437500 0.831029
vt 0.437500 0.831694
vt 0.406250 0.500000
vt 0.616663 0.050447
vt 0.406250 0.831029
vt 0.406250 0.831205
vt 0.375000 0.500000
vt 0.580294 0.080294
vt 0.375000 0.831029
vt 0.375000 0.830717
vt 0.343750 0.500000
vt 0.550447 0.116663
vt 0.343750 0.831029
vt 0.343750 0.830229
vt 0.312500 0.500000
vt 0.528269 0.158156
vt 0.312500 0.831029
vt 0.312500 0.831205
vt 0.281250 0.500000
vt 0.514612 0.203178
vt 0.281250 0.831029
vt 0.281250 0.831205
vt 0.250000 0.500000
vt 0.510000 0.250000
vt 0.250000 0.831029
vt 0.250000 0.830717
vt 0.218750 0.500000
vt 0.514612 0.296822
vt 0.218750 0.831029
vt 0.218750 0.831694
vt 0.187500 0.500000
vt 0.528269 0.341844
vt 0.187500 0.831029
vt 0.187500 0.831205
vt 0.156250 0.500000
vt 0.550447 0.383337
vt 0.156250 0.831029
vt 0.156250 0.831694
vt 0.125000 0.500000
vt 0.580294 0.419706
vt 0.125000 0.831029
vt 0.125000 0.831694
vt 0.093750 0.500000
vt 0.616663 0.449553
vt 0.093750 0.831029
vt 0.093750 0.831205
vt 0.062500 0.500000
vt 0.658156 0.471731
vt 0.062500 0.831029
vt 0.062500 0.831694
vt 0.031250 0.500000
vt 0.703178 0.485388
vt 0.031250 0.831029
vt 0.031250 0.831205
vt 1.000000 0.831694
vt 0.000000 0.931791
vt 0.000000 1.000000
vt 1.000000 1.000000
vt 0.968750 0.832182
vt 0.968750 1.000000
vt 0.937500 0.830717
vt 0.937500 1.000000
vt 0.906250 0.832182
vt 0.906250 1.000000
vt 0.875000 0.832182
vt 0.875615 0.831658
vt 0.875000 1.000000
vt 0.844365 0.832889
vt 0.843750 0.931791
vt 0.843750 1.000000
vt 0.812500 0.931791
vt 0.812500 1.000000
vt 0.781250 0.931791
vt 0.781250 1.000000
vt 0.750000 0.931791
vt 0.750000 1.000000
vt 0.718750 0.931791
vt 0.718750 1.000000
vt 0.687500 0.931791
vt 0.687500 1.000000
vt 0.656250 0.931791
vt 0.656250 0.930090
vt 0.656250 1.000000
vt 0.625000 0.930090
vt 0.625000 0.931791
vt 0.625000 1.000000
vt 0.593750 0.931791
vt 0.593750 1.001106
vt 0.562500 0.931791
vt 0.562500 1.001106
vt 0.531250 0.931791
vt 0.531250 1.001106
vt 0.500000 0.931791
vt 0.500000 1.000000
vt 0.468750 0.931791
vt 0.468750 1.000000
vt 0.437500 0.931791
vt 0.437500 1.000000
vt 0.406250 0.931791
vt 0.406250 1.000000
vt 0.375000 0.931791
vt 0.375000 1.000000
vt 0.343750 0.931791
vt 0.343750 1.000000
vt 0.312500 0.931791
vt 0.312500 1.000000
vt 0.281250 0.931791
vt 0.281250 1.000000
vt 0.250000 0.931791
vt 0.250000 1.000000
vt 0.218750 0.931791
vt 0.218750 1.000000
vt 0.187500 0.931791
vt 0.187500 1.000000
vt 0.156250 0.931791
vt 0.156250 1.000000
vt 0.125000 0.931791
vt 0.125000 1.000000
vt 0.093750 0.931791
vt 0.093750 1.000000
vt 0.062500 0.931791
vt 0.062500 1.000000
vt 0.031250 0.931791
vt 0.031250 1.000000
vt 0.250000 0.490000
vt 0.000000 0.930483
vt 1.000000 0.933559
vt 0.296822 0.485388
vt 0.968750 0.932944
vt 0.341844 0.471731
vt 0.937500 0.933559
vt 0.383337 0.449553
vt 0.906250 0.933559
vt 0.419706 0.419706
vt 0.875000 0.934174
vt 0.449553 0.383337
vt 0.843750 0.931098
vt 0.471731 0.341844
vt 0.812500 0.931713
vt 0.485388 0.296822
vt 0.781250 0.931713
vt 0.490000 0.250000
vt 0.750000 0.931713
vt 0.485388 0.203178
vt 0.718750 0.929868
vt 0.471731 0.158156
vt 0.687500 0.932944
vt 0.449553 0.116663
vt 0.656250 0.931098
vt 0.419706 0.080294
vt 0.625000 0.930483
vt 0.383337 0.050447
vt 0.593750 0.932204
vt 0.341844 0.028269
vt 0.562500 0.932819
vt 0.296822 0.014612
vt 0.531250 0.932204
vt 0.250000 0.010000
vt 0.500000 0.931713
vt 0.203178 0.014612
vt 0.468750 0.931713
vt 0.158156 0.028269
vt 0.437500 0.932328
vt 0.116663 0.050447
vt 0.406250 0.931713
vt 0.080294 0.080294
vt 0.375000 0.932328
vt 0.050447 0.116663
vt 0.343750 0.932566
vt 0.028269 0.158156
vt 0.312500 0.932566
vt 0.014612 0.203178
vt 0.281250 0.932076
vt 0.010000 0.250000
vt 0.250000 0.931713
vt 0.014612 0.296822
vt 0.218750 0.931098
vt 0.028269 0.341844
vt 0.187500 0.932328
vt 0.050447 0.383337
vt 0.156250 0.931713
vt 0.080294 0.419706
vt 0.125000 0.932328
vt 0.116663 0.449553
vt 0.093750 0.932944
vt 0.158156 0.471731
vt 0.062500 0.932328
vt 0.203178 0.485388
vt 0.031250 0.931098
s 0
usemtl Material.001
f 1/1/1 2/4/1 4/10/1 3/8/1
f 3/8/2 4/10/2 6/14/2 5/12/2
f 5/12/3 6/14/3 8/19/3 7/17/3
f 7/17/4 8/19/4 10/24/4 9/22/4
f 9/22/5 10/24/5 12/29/5 11/27/5
f 11/27/6 12/29/6 14/34/6 13/32/6
f 13/32/7 14/34/7 16/38/7 15/36/7
f 15/36/8 16/38/8 18/42/8 17/40/8
f 17/40/9 18/42/9 20/46/9 19/44/9
f 19/44/10 20/46/10 22/50/10 21/48/10
f 21/48/11 22/50/11 24/54/11 23/52/11
f 23/52/12 24/54/12 26/59/12 25/57/12
f 25/57/13 26/59/13 28/63/13 27/61/13
f 27/61/14 28/63/14 30/67/14 29/65/14
f 29/65/15 30/67/15 32/71/15 31/69/15
f 31/69/16 32/71/16 34/75/16 33/73/16
f 33/73/17 34/75/17 36/79/17 35/77/17
f 35/77/18 36/79/18 38/83/18 37/81/18
f 37/81/19 38/83/19 40/87/19 39/85/19
f 39/85/20 40/87/20 42/91/20 41/89/20
f 41/89/21 42/91/21 44/95/21 43/93/21
f 43/93/22 44/95/22 46/99/22 45/97/22
f 45/97/23 46/99/23 48/103/23 47/101/23
f 47/101/24 48/103/24 50/107/24 49/105/24
f 49/105/25 50/107/25 52/111/25 51/109/25
f 51/109/26 52/111/26 54/115/26 53/113/26
f 53/113/27 54/115/27 56/119/27 55/117/27
f 55/117/28 56/119/28 58/123/28 57/121/28
f 57/121/29 58/123/29 60/127/29 59/125/29
f 59/125/30 60/127/30 62/131/30 61/129/30
f 24/55/31 22/51/31 75/161/31 76/163/31
f 61/129/32 62/131/32 64/135/32 63/133/32
f 63/133/33 64/135/33 2/5/33 1/2/33
f 1/3/34 3/9/34 5/13/34 7/18/34 9/23/34 11/28/34 13/33/34 15/37/34 17/41/34 19/45/34 21/49/34 23/53/34 25/58/34 27/62/34 29/66/34 31/70/34 33/74/34 35/78/34 37/82/34 39/86/34 41/90/34 43/94/34 45/98/34 47/102/34 49/106/34 51/110/34 53/114/34 55/118/34 57/122/34 59/126/34 61/130/34 63/134/34
f 69/149/4 68/146/4 100/215/4 101/217/4
f 42/92/20 40/88/20 84/181/20 85/183/20
f 60/128/29 58/124/29 93/199/29 94/201/29
f 16/39/35 14/35/35 71/153/35 72/155/35
f 34/76/16 32/72/16 80/173/16 81/175/16
f 52/112/25 50/108/25 89/191/25 90/193/25
f 8/20/3 6/15/3 67/143/3 68/145/3
f 26/60/36 24/56/36 76/164/36 77/166/36
f 44/96/21 42/92/21 85/183/21 86/185/21
f 62/132/30 60/128/30 94/201/30 95/203/30
f 18/43/37 16/39/37 72/155/37 73/157/37
f 36/80/17 34/76/17 81/175/17 82/177/17
f 54/116/26 52/112/26 90/193/26 91/195/26
f 10/25/4 8/21/4 68/145/4 69/147/4
f 28/64/13 26/60/13 77/167/13 78/169/13
f 46/100/22 44/96/22 86/185/22 87/187/22
f 64/136/32 62/132/32 95/203/32 96/205/32
f 20/47/38 18/43/38 73/157/38 74/159/38
f 38/84/18 36/80/18 82/177/18 83/179/18
f 56/120/27 54/116/27 91/195/27 92/197/27
f 12/30/39 10/26/39 69/148/39 70/150/39
f 30/68/14 28/64/14 78/169/14 79/171/14
f 48/104/23 46/100/23 87/187/23 88/189/23
f 4/11/1 2/6/1 65/137/1 66/141/1
f 2/7/33 64/136/33 96/205/33 65/138/33
f 22/51/40 20/47/40 74/159/40 75/161/40
f 40/88/19 38/84/19 83/179/19 84/181/19
f 58/124/28 56/120/28 92/197/28 93/199/28
f 14/35/41 12/31/41 70/151/41 71/153/41
f 32/72/15 30/68/15 79/171/15 80/173/15
f 50/108/24 48/104/24 88/189/24 89/191/24
f 6/16/2 4/11/2 66/141/2 67/143/2
f 98/210/42 97/207/42 128/270/42 127/268/42 126/266/42 125/264/42 124/262/42 123/260/42 122/258/42 121/256/42 120/254/42 119/252/42 118/250/42 117/248/42 116/246/42 115/244/42 114/242/42 113/240/42 112/238/42 111/236/42 110/234/42 109/232/42 108/230/42 107/228/42 106/226/42 105/224/42 104/222/42 103/220/42 102/218/42 101/216/42 100/214/42 99/212/42
f 96/206/32 95/204/32 127/269/32 128/271/32
f 83/180/18 82/178/18 114/243/18 115/245/18
f 70/152/43 69/149/43 101/217/43 102/219/43
f 65/139/33 96/206/33 128/271/33 97/208/33
f 84/182/19 83/180/19 115/245/19 116/247/19
f 71/154/6 70/152/6 102/219/6 103/221/6
f 85/184/20 84/182/20 116/247/20 117/249/20
f 72/156/7 71/154/7 103/221/7 104/223/7
f 86/186/21 85/184/21 117/249/21 118/251/21
f 73/158/8 72/156/8 104/223/8 105/225/8
f 87/188/22 86/186/22 118/251/22 119/253/22
f 74/160/9 73/158/9 105/225/9 106/227/9
f 88/190/23 87/188/23 119/253/23 120/255/23
f 75/162/10 74/160/10 106/227/10 107/229/10
f 89/192/24 88/190/24 120/255/24 121/257/24
f 76/165/11 75/162/11 107/229/11 108/231/11
f 90/194/25 89/192/25 121/257/25 122/259/25
f 77/168/44 76/165/44 108/231/44 109/233/44
f 91/196/26 90/194/26 122/259/26 123/261/26
f 78/170/13 77/168/13 109/233/13 110/235/13
f 92/198/27 91/196/27 123/261/27 124/263/27
f 79/172/14 78/170/14 110/235/14 111/237/14
f 66/142/1 65/140/1 97/209/1 98/211/1
f 93/200/28 92/198/28 124/263/28 125/265/28
f 80/174/15 79/172/15 111/237/15 112/239/15
f 67/144/2 66/142/2 98/211/2 99/213/2
f 94/202/29 93/200/29 125/265/29 126/267/29
f 81/176/16 80/174/16 112/239/16 113/241/16
f 68/146/3 67/144/3 99/213/3 100/215/3
f 95/204/30 94/202/30 126/267/30 127/269/30
f 82/178/17 81/176/17 113/241/17 114/243/17
