# Blender 3.4.0
# www.blender.org
mtllib road.mtl
o rua_Cubo
v 1.604423 0.849350 -16.744492
v 1.604423 1.150650 -16.744492
v -2.734882 0.849350 -16.744492
v -2.734882 1.150651 -16.744492
v 1.604423 0.849350 14.945755
v 1.604423 1.150650 14.945755
v -2.734882 0.849350 14.945755
v -2.734882 1.150651 14.945755
vn -0.0000 -0.0000 -1.0000
vn -1.0000 -0.0000 -0.0000
vn -0.0000 -0.0000 1.0000
vn 1.0000 -0.0000 -0.0000
vn -0.0000 -1.0000 -0.0000
vn -0.0000 1.0000 -0.0000
vt 2.338983 0.030904
vt 2.338983 0.969096
vt -1.338983 0.030904
vt -1.338983 0.969096
vt 2.338983 0.969096
vt 2.338983 0.030904
vt -1.338983 0.969096
vt -1.338983 0.030904
vt 2.338983 0.969096
vt 2.338983 0.030904
vt -1.338983 0.969096
vt -1.338983 0.969096
vt -1.338983 0.030904
vt 2.338983 0.969096
vt 2.338983 0.969096
vt 2.338983 0.030904
vt -1.338983 0.030904
vt -1.338983 0.969096
vt -1.338983 0.030904
vt 2.338983 0.030904
s 0
usemtl Materiais.001
f 1/1/1 3/5/1 4/7/1 2/3/1
f 3/6/2 7/15/2 8/18/2 4/8/2
f 7/16/3 5/9/3 6/12/3 8/19/3
f 5/10/4 1/2/4 2/4/4 6/13/4
f 3/6/5 1/2/5 5/11/5 7/17/5
f 8/20/6 6/14/6 2/4/6 4/8/6
