# Blender 3.4.0
# www.blender.org
mtllib roadblock1.mtl
o Cube
v -2.316399 0.003496 1.000000
v -2.316399 2.003496 0.009190
v -2.316399 0.003496 -1.000000
v -2.316399 2.003496 -0.280647
v 2.316399 0.003496 1.000000
v 2.316399 2.003496 0.009190
v 2.316399 0.003496 -1.000000
v 2.316399 2.003496 -0.280647
vn -1.0000 -0.0000 -0.0000
vn -0.0000 0.3385 -0.9410
vn 1.0000 -0.0000 -0.0000
vn -0.0000 0.4439 0.8961
vn -0.0000 -1.0000 -0.0000
vn -0.0000 1.0000 -0.0000
vt 0.375000 0.000000
vt 0.375000 1.000000
vt 0.125000 0.750000
vt 0.625000 0.000000
vt 0.625000 1.000000
vt 0.875000 0.750000
vt 0.375000 0.250000
vt 0.125000 0.500000
vt 0.625000 0.250000
vt 0.867187 0.250000
vt 0.875000 0.500000
vt 0.375000 0.750000
vt 0.625000 0.750000
vt 0.375000 0.500000
vt 0.867187 0.500000
vt 0.625000 0.500000
s 0
usemtl Material.002
f 1/1/1 2/4/1 4/9/1 3/7/1
f 3/7/2 4/10/2 8/15/2 7/14/2
f 7/14/3 8/16/3 6/13/3 5/12/3
f 5/12/4 6/13/4 2/5/4 1/2/4
f 3/8/5 7/14/5 5/12/5 1/3/5
f 8/16/6 4/11/6 2/6/6 6/13/6
